name Walk3.mot
datacolumns 19
datarows 25
range 1.59100000 1.61500000
endheader

                time	   L_ground_force_vx	   L_ground_force_vy	   L_ground_force_vz	   L_ground_force_px	   L_ground_force_py	   L_ground_force_pz	   R_ground_force_vx	   R_ground_force_vy	   R_ground_force_vz	   R_ground_force_px	   R_ground_force_py	   R_ground_force_pz	   L_ground_torque_x	   L_ground_torque_y	   L_ground_torque_z	   R_ground_torque_x	   R_ground_torque_y	   R_ground_torque_z	
          1.59100000	         39.20463625	        933.35114822	         80.43387442	         -0.24278472	          0.00000000	         -0.06408615	          0.00000000	          0.00000000	          0.00000000	          0.00000000	          0.00000000	          0.00000000	          0.00000000	         -3.81287114	          0.00000000	          0.00000000	          0.00000000	          0.00000000	
          1.59200000	         39.97356105	        934.82634445	         80.67282124	         -0.24230770	          0.00000000	         -0.06422407	          0.00000000	          0.00000000	          0.00000000	          0.00000000	          0.00000000	          0.00000000	          0.00000000	         -3.78736398	          0.00000000	          0.00000000	          0.00000000	          0.00000000	
          1.59300000	         40.71747559	        936.30063240	         80.90152108	         -0.24183759	          0.00000000	         -0.06433351	          0.00000000	          0.00000000	          0.00000000	          0.00000000	          0.00000000	          0.00000000	          0.00000000	         -3.76657931	          0.00000000	          0.00000000	          0.00000000	          0.00000000	
          1.59400000	         41.42685041	        937.77451839	         81.12206669	         -0.24137965	          0.00000000	         -0.06442723	          0.00000000	          0.00000000	          0.00000000	          0.00000000	          0.00000000	          0.00000000	          0.00000000	         -3.74630090	          0.00000000	          0.00000000	          0.00000000	          0.00000000	
          1.59500000	         42.09738680	        939.26406246	         81.35414638	         -0.24094553	          0.00000000	         -0.06452088	          0.00000000	          0.00000000	          0.00000000	          0.00000000	          0.00000000	          0.00000000	          0.00000000	         -3.72634693	          0.00000000	          0.00000000	          0.00000000	          0.00000000	
          1.59600000	         42.76441430	        940.76436318	         81.62087401	         -0.24053940	          0.00000000	         -0.06461697	          0.00000000	          0.00000000	          0.00000000	          0.00000000	          0.00000000	          0.00000000	          0.00000000	         -3.71636262	          0.00000000	          0.00000000	          0.00000000	          0.00000000	
          1.59700000	         43.48624120	        942.25395921	         81.91299622	         -0.24015033	          0.00000000	         -0.06472044	          0.00000000	          0.00000000	          0.00000000	          0.00000000	          0.00000000	          0.00000000	          0.00000000	         -3.72118849	          0.00000000	          0.00000000	          0.00000000	          0.00000000	
          1.59800000	         44.29345627	        943.73539512	         82.19200403	         -0.23976001	          0.00000000	         -0.06484085	          0.00000000	          0.00000000	          0.00000000	          0.00000000	          0.00000000	          0.00000000	          0.00000000	         -3.73199702	          0.00000000	          0.00000000	          0.00000000	          0.00000000	
          1.59900000	         45.17543901	        945.24854357	         82.42588154	         -0.23935254	          0.00000000	         -0.06497925	          0.00000000	          0.00000000	          0.00000000	          0.00000000	          0.00000000	          0.00000000	          0.00000000	         -3.73618143	          0.00000000	          0.00000000	          0.00000000	          0.00000000	
          1.60000000	         46.09080574	        946.83327181	         82.61269083	         -0.23891986	          0.00000000	         -0.06513063	          0.00000000	          0.00000000	          0.00000000	          0.00000000	          0.00000000	          0.00000000	          0.00000000	         -3.72303807	          0.00000000	          0.00000000	          0.00000000	          0.00000000	
          1.60100000	         46.97010215	        948.47431219	         82.77492779	         -0.23846953	          0.00000000	         -0.06528751	          0.00000000	          0.00000000	          0.00000000	          0.00000000	          0.00000000	          0.00000000	          0.00000000	         -3.68672175	          0.00000000	          0.00000000	          0.00000000	          0.00000000	
          1.60200000	         47.75633826	        950.10111566	         82.93939257	         -0.23802108	          0.00000000	         -0.06543521	          0.00000000	          0.00000000	          0.00000000	          0.00000000	          0.00000000	          0.00000000	          0.00000000	         -3.63556405	          0.00000000	          0.00000000	          0.00000000	          0.00000000	
          1.60300000	         48.45441272	        951.64626690	         83.11563215	         -0.23758770	          0.00000000	         -0.06556125	          0.00000000	          0.00000000	          0.00000000	          0.00000000	          0.00000000	          0.00000000	          0.00000000	         -3.58878953	          0.00000000	          0.00000000	          0.00000000	          0.00000000	
          1.60400000	         49.09764814	        953.09741967	         83.29345237	         -0.23717071	          0.00000000	         -0.06566838	          0.00000000	          0.00000000	          0.00000000	          0.00000000	          0.00000000	          0.00000000	          0.00000000	         -3.56030635	          0.00000000	          0.00000000	          0.00000000	          0.00000000	
          1.60500000	         49.69155380	        954.50910472	         83.47283632	         -0.23676949	          0.00000000	         -0.06576270	          0.00000000	          0.00000000	          0.00000000	          0.00000000	          0.00000000	          0.00000000	          0.00000000	         -3.55486945	          0.00000000	          0.00000000	          0.00000000	          0.00000000	
          1.60600000	         50.23907558	        955.96508974	         83.68147334	         -0.23638298	          0.00000000	         -0.06583682	          0.00000000	          0.00000000	          0.00000000	          0.00000000	          0.00000000	          0.00000000	          0.00000000	         -3.57617670	          0.00000000	          0.00000000	          0.00000000	          0.00000000	
          1.60700000	         50.78429222	        957.51984890	         83.93933495	         -0.23599847	          0.00000000	         -0.06588527	          0.00000000	          0.00000000	          0.00000000	          0.00000000	          0.00000000	          0.00000000	          0.00000000	         -3.62394043	          0.00000000	          0.00000000	          0.00000000	          0.00000000	
          1.60800000	         51.38132813	        959.16355916	         84.21922043	         -0.23559191	          0.00000000	         -0.06592640	          0.00000000	          0.00000000	          0.00000000	          0.00000000	          0.00000000	          0.00000000	          0.00000000	         -3.68290021	          0.00000000	          0.00000000	          0.00000000	          0.00000000	
          1.60900000	         52.03875934	        960.82676111	         84.46871254	         -0.23514885	          0.00000000	         -0.06598820	          0.00000000	          0.00000000	          0.00000000	          0.00000000	          0.00000000	          0.00000000	          0.00000000	         -3.72556355	          0.00000000	          0.00000000	          0.00000000	          0.00000000	
          1.61000000	         52.71420609	        962.42775021	         84.66500895	         -0.23467720	          0.00000000	         -0.06608377	          0.00000000	          0.00000000	          0.00000000	          0.00000000	          0.00000000	          0.00000000	          0.00000000	         -3.72858958	          0.00000000	          0.00000000	          0.00000000	          0.00000000	
          1.61100000	         53.34764889	        963.92632607	         84.82899637	         -0.23419762	          0.00000000	         -0.06621201	          0.00000000	          0.00000000	          0.00000000	          0.00000000	          0.00000000	          0.00000000	          0.00000000	         -3.68806032	          0.00000000	          0.00000000	          0.00000000	          0.00000000	
          1.61200000	         53.90173649	        965.33605212	         84.99775970	         -0.23372939	          0.00000000	         -0.06636819	          0.00000000	          0.00000000	          0.00000000	          0.00000000	          0.00000000	          0.00000000	          0.00000000	         -3.62129272	          0.00000000	          0.00000000	          0.00000000	          0.00000000	
          1.61300000	         54.38392866	        966.69667615	         85.20001486	         -0.23328186	          0.00000000	         -0.06654169	          0.00000000	          0.00000000	          0.00000000	          0.00000000	          0.00000000	          0.00000000	          0.00000000	         -3.55380172	          0.00000000	          0.00000000	          0.00000000	          0.00000000	
          1.61400000	         54.83062754	        968.04335415	         85.44085608	         -0.23285572	          0.00000000	         -0.06671174	          0.00000000	          0.00000000	          0.00000000	          0.00000000	          0.00000000	          0.00000000	          0.00000000	         -3.50481743	          0.00000000	          0.00000000	          0.00000000	          0.00000000	
          1.61500000	         55.26788835	        969.40411033	         85.69748060	         -0.23244984	          0.00000000	         -0.06685585	          0.00000000	          0.00000000	          0.00000000	          0.00000000	          0.00000000	          0.00000000	          0.00000000	         -3.48026647	          0.00000000	          0.00000000	          0.00000000	          0.00000000	
